<?xml version="1.0" encoding="UTF-8" standalone="no"?>
<svg
   xmlns:dc="http://purl.org/dc/elements/1.1/"
   xmlns:cc="http://creativecommons.org/ns#"
   xmlns:rdf="http://www.w3.org/1999/02/22-rdf-syntax-ns#"
   xmlns:svg="http://www.w3.org/2000/svg"
   xmlns="http://www.w3.org/2000/svg"
   viewBox="0 0 700 378"
   height="378"
   width="700"
   xml:space="preserve"
   version="1.1"
   id="svg2"><metadata
     id="metadata8"><rdf:RDF><cc:Work
         rdf:about=""><dc:format>image/svg+xml</dc:format><dc:type
           rdf:resource="http://purl.org/dc/dcmitype/StillImage" /><dc:title></dc:title></cc:Work></rdf:RDF></metadata><defs
     id="defs6"><linearGradient
       id="linearGradient734"
       spreadMethod="pad"
       gradientTransform="matrix(61.350143,0,0,61.350143,192.02197,113.21875)"
       gradientUnits="userSpaceOnUse"
       y2="0"
       x2="1"
       y1="0"
       x1="0"><stop
         id="stop736"
         offset="0"
         style="stop-opacity:1;stop-color:#0085bf" /><stop
         id="stop738"
         offset="1"
         style="stop-opacity:1;stop-color:#009ee0" /></linearGradient><linearGradient
       id="linearGradient754"
       spreadMethod="pad"
       gradientTransform="matrix(42.360504,0,0,42.360504,201.64697,113.46875)"
       gradientUnits="userSpaceOnUse"
       y2="0"
       x2="1"
       y1="0"
       x1="0"><stop
         id="stop756"
         offset="0"
         style="stop-opacity:1;stop-color:#0085bf" /><stop
         id="stop758"
         offset="1"
         style="stop-opacity:1;stop-color:#009ee0" /></linearGradient><linearGradient
       id="linearGradient774"
       spreadMethod="pad"
       gradientTransform="matrix(18.531906,0,0,18.531906,215.27197,119.20313)"
       gradientUnits="userSpaceOnUse"
       y2="0"
       x2="1"
       y1="0"
       x1="0"><stop
         id="stop776"
         offset="0"
         style="stop-opacity:1;stop-color:#0085bf" /><stop
         id="stop778"
         offset="1"
         style="stop-opacity:1;stop-color:#009ee0" /></linearGradient></defs><g
     transform="matrix(1.25,0,0,-1.25,0,377.99998)"
     id="g10"><g
       transform="matrix(0.99999998,0,0,0.99975249,-167.1415,-72.961958)"
       id="g6228"><g
         id="g6211"><g
           transform="matrix(3.7620784,0,0,3.7620784,-461.65792,-201.57648)"
           id="g722"><g
             id="g724"><g
               id="g730"><g
                 id="g732"><path
                   id="path740"
                   style="fill:url(#linearGradient734);stroke:none"
                   d="m 212.949,153.381 0.036,-4.883 0.167,0 c 0.368,0 0.732,-0.007 1.099,-0.018 l 0,0 0.147,4.885 c -0.416,0.009 -0.833,0.016 -1.246,0.016 l 0,0 -0.203,0 z m -5.482,-0.403 0.689,-4.833 c 0.415,0.057 0.838,0.112 1.26,0.157 l 0,0 -0.513,4.855 c -0.482,-0.049 -0.963,-0.11 -1.436,-0.179 m 10.345,-4.78 c 0.418,-0.058 0.838,-0.119 1.251,-0.188 l 0,0 0.809,4.817 c -0.475,0.077 -0.95,0.149 -1.43,0.212 l 0,0 -0.63,-4.841 z m -15.73,3.633 1.348,-4.696 c 0.406,0.116 0.815,0.226 1.228,0.327 l 0,0 -1.181,4.738 c -0.468,-0.117 -0.931,-0.241 -1.395,-0.369 m 20.466,-4.586 c 0.408,-0.113 0.814,-0.231 1.217,-0.357 l 0,0 1.461,4.658 c -0.46,0.146 -0.922,0.28 -1.388,0.408 l 0,0 -1.29,-4.709 z m -25.64,2.7 1.979,-4.464 c 0.388,0.172 0.779,0.337 1.172,0.496 l 0,0 -1.821,4.53 c -0.447,-0.181 -0.891,-0.367 -1.33,-0.562 m 30.202,-4.295 c 0.391,-0.169 0.776,-0.344 1.161,-0.526 l 0,0 2.088,4.416 c -0.436,0.207 -0.878,0.405 -1.321,0.597 l 0,0 -1.928,-4.487 z m -35.071,1.719 2.577,-4.148 c 0.358,0.225 0.723,0.441 1.09,0.652 l 0,0 -2.426,4.24 c -0.418,-0.243 -0.831,-0.488 -1.241,-0.744 m 39.376,-3.929 c 0.36,-0.219 0.721,-0.443 1.073,-0.677 l 0,0 2.674,4.089 c -0.402,0.26 -0.811,0.517 -1.226,0.769 l 0,0 -2.521,-4.181 z m 3.959,-2.778 c 0.328,-0.265 0.655,-0.536 0.974,-0.818 l 0,0 3.206,3.685 c -0.363,0.319 -0.735,0.629 -1.112,0.929 l 0,0 -3.068,-3.796 z m 3.548,-3.291 c 0.289,-0.311 0.573,-0.62 0.851,-0.938 l 0,0 3.674,3.213 c -0.316,0.364 -0.639,0.719 -0.971,1.07 l 0,0 -3.554,-3.345 z m 3.063,-3.739 c 0.246,-0.346 0.483,-0.694 0.718,-1.047 l 0,0 4.079,2.687 c -0.268,0.402 -0.538,0.797 -0.817,1.19 l 0,0 -3.98,-2.83 z m 2.529,-4.12 c 0.193,-0.377 0.383,-0.753 0.564,-1.133 l 0,0 4.406,2.103 c -0.207,0.432 -0.421,0.865 -0.642,1.291 l 0,0 -4.328,-2.261 z m 1.937,-4.425 c 0.144,-0.396 0.279,-0.797 0.405,-1.198 l 0,0 4.653,1.478 c -0.144,0.46 -0.3,0.916 -0.459,1.368 l 0,0 -4.599,-1.648 z m 1.313,-4.65 c 0.084,-0.409 0.164,-0.824 0.234,-1.241 l 0,0 4.816,0.823 c -0.081,0.476 -0.174,0.95 -0.27,1.424 l 0,0 -4.78,-1.006 z m 0.661,-4.785 c 0.027,-0.421 0.05,-0.844 0.066,-1.27 l 0,0 4.879,0.164 c -0.016,0.483 -0.039,0.962 -0.074,1.442 l 0,0 -4.871,-0.336 z m -0.105,-6.106 4.861,-0.501 c 0.046,0.479 0.087,0.958 0.119,1.439 l 0,0 -4.87,0.329 c -0.03,-0.423 -0.065,-0.846 -0.11,-1.267 m -0.816,-4.764 4.739,-1.156 c 0.118,0.467 0.221,0.938 0.321,1.409 l 0,0 -4.785,0.986 c -0.086,-0.415 -0.177,-0.829 -0.275,-1.239 m -1.467,-4.611 4.539,-1.799 c 0.18,0.446 0.348,0.901 0.51,1.36 l 0,0 -4.604,1.631 c -0.139,-0.399 -0.29,-0.794 -0.445,-1.192 m -2.091,-4.361 4.252,-2.405 c 0.239,0.417 0.469,0.842 0.693,1.271 l 0,0 -4.333,2.251 c -0.2,-0.376 -0.4,-0.749 -0.612,-1.117 m -2.663,-4.035 3.882,-2.968 c 0.293,0.385 0.579,0.773 0.858,1.171 l 0,0 -3.988,2.818 c -0.244,-0.346 -0.495,-0.685 -0.752,-1.021 m -3.19,-3.635 3.441,-3.465 c 0.341,0.338 0.677,0.685 1.008,1.037 l 0,0 -3.567,3.337 c -0.286,-0.31 -0.581,-0.612 -0.882,-0.909 m -3.658,-3.171 2.947,-3.898 c 0.381,0.292 0.76,0.587 1.132,0.893 l 0,0 -3.075,3.788 c -0.329,-0.265 -0.662,-0.526 -1.004,-0.783 m -4.048,-2.639 2.384,-4.261 c 0.423,0.234 0.836,0.475 1.248,0.725 l 0,0 -2.535,4.174 c -0.361,-0.219 -0.729,-0.432 -1.097,-0.638 m -4.37,-2.062 1.782,-4.549 c 0.449,0.177 0.894,0.361 1.331,0.549 l 0,0 -1.939,4.481 c -0.387,-0.166 -0.777,-0.327 -1.174,-0.481 m -4.609,-1.441 1.135,-4.752 c 0.472,0.116 0.938,0.232 1.4,0.362 l 0,0 -1.305,4.704 c -0.407,-0.111 -0.818,-0.216 -1.23,-0.314 m -4.763,-0.796 0.466,-4.864 c 0.483,0.048 0.96,0.106 1.439,0.168 l 0,0 -0.647,4.84 c -0.42,-0.058 -0.838,-0.105 -1.258,-0.144 m -5.03,-5.019 c 0.483,-0.017 0.965,-0.028 1.442,-0.032 l 0,0 0.021,4.885 c -0.423,0.002 -0.846,0.012 -1.273,0.027 l 0,0 -0.19,-4.88 z" /></g></g></g></g><g
           transform="matrix(3.7620784,0,0,3.7620784,-461.65792,-201.57648)"
           id="g742"><g
             id="g744"><g
               id="g750"><g
                 id="g752"><path
                   id="path760"
                   style="fill:url(#linearGradient754);stroke:none"
                   d="m 212.573,144.016 0.106,-4.881 c 0.427,0.008 0.833,0.006 1.239,-0.003 l 0,0 0.132,4.88 c -0.269,0.008 -0.544,0.012 -0.818,0.012 l 0,0 c -0.219,0 -0.438,-0.002 -0.659,-0.008 m -5.569,-0.615 0.973,-4.788 c 0.404,0.08 0.812,0.156 1.221,0.218 l 0,0 -0.744,4.825 c -0.487,-0.072 -0.973,-0.16 -1.45,-0.255 m 10.383,-4.597 c 0.407,-0.066 0.815,-0.142 1.217,-0.23 l 0,0 1.019,4.776 c -0.484,0.105 -0.966,0.196 -1.451,0.274 l 0,0 -0.785,-4.82 z m -15.76,2.98 1.828,-4.531 c 0.384,0.155 0.771,0.3 1.159,0.437 l 0,0 -1.605,4.611 c -0.463,-0.161 -0.925,-0.333 -1.382,-0.517 m 20.33,-4.162 c 0.393,-0.141 0.779,-0.291 1.161,-0.448 l 0,0 1.864,4.515 c -0.451,0.186 -0.911,0.362 -1.373,0.529 l 0,0 -1.652,-4.596 z m 4.281,-1.995 c 0.359,-0.211 0.711,-0.425 1.055,-0.652 l 0,0 2.662,4.097 c -0.413,0.269 -0.832,0.528 -1.26,0.772 l 0,0 -2.457,-4.217 z m 3.855,-2.738 c 0.311,-0.274 0.619,-0.549 0.921,-0.833 l 0,0 3.346,3.555 c -0.357,0.333 -0.72,0.665 -1.093,0.985 l 0,0 -3.174,-3.707 z m 3.289,-3.388 c 0.26,-0.32 0.511,-0.65 0.757,-0.98 l 0,0 3.936,2.888 c -0.288,0.396 -0.588,0.783 -0.899,1.165 l 0,0 -3.794,-3.073 z m 2.624,-3.923 c 0.195,-0.359 0.384,-0.725 0.564,-1.096 l 0,0 4.397,2.123 c -0.214,0.443 -0.439,0.878 -0.673,1.311 l 0,0 -4.288,-2.338 z m 1.864,-4.33 c 0.127,-0.392 0.249,-0.785 0.355,-1.185 l 0,0 4.713,1.288 c -0.131,0.473 -0.272,0.948 -0.424,1.412 l 0,0 -4.644,-1.515 z m 1.047,-4.602 c 0.056,-0.408 0.101,-0.819 0.136,-1.235 l 0,0 4.866,0.416 c -0.042,0.491 -0.095,0.98 -0.16,1.465 l 0,0 -4.842,-0.646 z m 0.115,-5.959 4.863,-0.467 c 0.048,0.486 0.082,0.981 0.101,1.473 l 0,0 -4.874,0.229 c -0.023,-0.414 -0.051,-0.824 -0.09,-1.235 m -0.878,-4.644 4.696,-1.337 c 0.137,0.472 0.26,0.949 0.373,1.427 l 0,0 -4.755,1.115 c -0.096,-0.404 -0.198,-0.806 -0.314,-1.205 m -1.709,-4.402 4.376,-2.172 c 0.217,0.44 0.426,0.886 0.622,1.334 l 0,0 -4.472,1.963 c -0.163,-0.377 -0.34,-0.755 -0.526,-1.125 m -2.478,-4.021 3.907,-2.927 c 0.297,0.395 0.581,0.793 0.857,1.2 l 0,0 -4.043,2.742 c -0.23,-0.346 -0.472,-0.681 -0.721,-1.015 m -3.163,-3.506 3.318,-3.584 c 0.359,0.332 0.712,0.673 1.057,1.026 l 0,0 -3.486,3.419 c -0.289,-0.292 -0.584,-0.581 -0.889,-0.861 m -3.739,-2.878 2.612,-4.128 c 0.416,0.265 0.823,0.538 1.224,0.818 l 0,0 -2.809,3.996 c -0.337,-0.238 -0.679,-0.465 -1.027,-0.686 m -4.2,-2.152 1.821,-4.53 c 0.455,0.185 0.909,0.374 1.352,0.581 l 0,0 -2.035,4.441 c -0.371,-0.173 -0.754,-0.336 -1.138,-0.492 m -4.523,-1.347 0.964,-4.786 c 0.486,0.096 0.964,0.205 1.437,0.324 l 0,0 -1.189,4.737 c -0.4,-0.104 -0.803,-0.194 -1.212,-0.275" /></g></g></g></g><g
           transform="matrix(3.7620784,0,0,3.7620784,-461.65792,-201.57648)"
           id="g762"><g
             id="g764"><g
               id="g770"><g
                 id="g772"><path
                   id="path780"
                   style="fill:url(#linearGradient774);stroke:none"
                   d="m 215.285,128.024 c 0.385,-0.049 0.771,-0.111 1.152,-0.188 l 0,0 0.966,4.788 c -0.508,0.103 -1.015,0.185 -1.525,0.244 l 0,0 -0.593,-4.844 z m 4.3,-1.177 0.27,-0.119 c 0.265,-0.122 0.53,-0.248 0.788,-0.387 l 0,0 2.274,4.321 c -0.339,0.178 -0.686,0.35 -1.035,0.51 l 0,0 -0.356,0.157 -1.941,-4.482 z m 3.792,-2.338 c 0.3,-0.252 0.592,-0.514 0.868,-0.783 l 0,0 3.408,3.493 c -0.363,0.36 -0.744,0.703 -1.141,1.035 l 0,0 -3.135,-3.745 z m 2.965,-3.32 c 0.216,-0.324 0.418,-0.662 0.61,-1.001 l 0,0 4.263,2.38 c -0.249,0.446 -0.516,0.887 -0.799,1.315 l 0,0 -4.074,-2.694 z m 1.899,-4.032 c 0.116,-0.374 0.216,-0.752 0.303,-1.132 l 0,0 4.764,1.073 c -0.113,0.5 -0.245,1.001 -0.396,1.489 l 0,0 -4.671,-1.43 z m 0.685,-4.397 0.002,-0.155 c 0,-0.342 -0.013,-0.683 -0.035,-1.023 l 0,0 4.874,-0.323 c 0.03,0.45 0.045,0.899 0.045,1.364 l 0,0 -0.004,0.177 -4.882,-0.04 z m -0.966,-5.53 4.579,-1.702 c 0.179,0.485 0.341,0.973 0.483,1.469 l 0,0 -4.696,1.346 c -0.107,-0.374 -0.228,-0.743 -0.366,-1.113" /></g></g></g></g></g><g
         id="g6204"><path
           d="m 196.31642,185.304 -13.81811,0 c -10.11247,0 -15.35681,5.69202 -15.35681,14.20937 l 0,25.60094 c 0,8.59259 5.24434,14.28462 15.35681,14.28462 l 14.66082,0 0,-7.51288 -14.66082,0 c -6.08328,0 -7.14795,-3.05104 -7.14795,-7.53168 l 0,-7.67464 20.8231,0 0,-7.59563 -20.8231,0 0,-8.81831 c 0,-4.47312 1.06467,-7.43763 7.14795,-7.43763 l 14.95802,0 0,-6.30525 c 0,-0.61322 -0.52669,-1.21891 -1.13991,-1.21891"
           style="fill:#635c6d;fill-opacity:1;fill-rule:nonzero;stroke:none"
           id="path792" /><path
           d="m 234.60197,185.304 -18.69377,41.93213 c -0.30473,0.61698 -0.60945,1.07219 -0.83142,1.52364 l 0,-43.45577 -8.13361,0 0,54.09493 5.9328,0 c 6.13971,0 7.82136,-3.11501 10.40214,-8.81079 l 10.10495,-22.49347 3.04352,-8.50606 -0.53798,8.50606 0,31.30426 8.13738,0 0,-54.09493 -9.42401,0 z"
           style="fill:#635c6d;fill-opacity:1;fill-rule:nonzero;stroke:none"
           id="path796" /><path
           d="m 267.63794,184.69041 c -5.24058,0 -10.7934,1.51988 -15.8835,2.88928 l 1.67413,7.53168 c 4.63864,-1.2302 9.345,-2.81404 14.20937,-2.81404 6.60997,0 9.03275,3.63793 9.03275,7.51287 0,12.30576 -24.00206,7.67841 -24.00206,25.45423 0,9.26976 7.29843,14.74358 16.94064,14.74358 4.40915,0 9.266,-1.29792 13.91217,-2.82156 l -2.28735,-7.05766 c -3.56645,1.21139 -7.67464,2.28735 -11.54958,2.28735 -6.151,0 -8.5813,-3.35202 -8.5813,-7.15171 0,-10.48115 24.01335,-6.76046 24.01335,-25.45423 0,-9.18699 -6.98995,-15.11979 -17.47862,-15.11979"
           style="fill:#635c6d;fill-opacity:1;fill-rule:nonzero;stroke:none"
           id="path800" /><path
           d="m 313.8152,228.75902 c -0.75618,2.88928 -1.36187,3.65674 -2.50178,3.65674 -0.99319,0 -1.60265,-0.76746 -2.35883,-3.65674 l -5.61302,-20.7441 16.09794,0 -5.62431,20.7441 z m 11.77907,-43.45577 -4.17967,15.57501 -20.05188,0 -4.17967,-15.57501 -8.3631,0 12.38476,45.66035 c 1.90361,7.06518 6.31277,9.04027 10.10871,9.04027 3.86741,0 8.36686,-1.97509 10.26295,-9.04027 l 12.381,-45.66035 -8.3631,0 z"
           style="fill:#635c6d;fill-opacity:1;fill-rule:nonzero;stroke:none"
           id="path804" /><path
           d="m 347.7657,185.304 -7.06518,0 0,54.09493 8.20885,0 0,-52.87602 c 0,-0.61322 -0.53421,-1.21891 -1.14367,-1.21891"
           style="fill:#635c6d;fill-opacity:1;fill-rule:nonzero;stroke:none"
           id="path808" /></g><g
         id="g6145"><path
           d="m 532.64586,297.59677 -0.72984,1.64403 6.73788,3.24667 0.86528,-2.024 -6.87332,-2.8667 z m 8.2841,-22.3806 -5.04495,0 c -3.7997,0 -5.73341,2.14438 -5.73341,5.28195 l 0,10.27424 c 0,3.16767 1.90361,5.31582 5.73341,5.31582 l 5.48511,0 0,-2.3814 -5.48511,0 c -2.65603,0 -3.18272,-1.32801 -3.18272,-3.10748 l 0,-3.57397 8.25776,0 0,-2.37387 -8.25776,0 0,-3.98404 c 0,-1.78323 0.52669,-3.07738 3.18272,-3.07738 l 5.60173,0 0,-1.80956 c 0,-0.32354 -0.23324,-0.56431 -0.55678,-0.56431"
           style="fill:#635c6d;fill-opacity:1;fill-rule:nonzero;stroke:none"
           id="path812" /><path
           d="m 550.93825,274.98781 c -3.99157,0 -6.151,3.05105 -6.151,6.23753 l 0,3.60407 c 0,3.16391 2.15943,6.24129 6.151,6.24129 1.51988,0 3.03976,-0.4176 4.5935,-0.91043 l -0.52293,-2.24972 c -1.93371,0.51917 -2.95699,0.81261 -4.07057,0.81261 -2.72751,0 -3.64169,-2.16696 -3.64169,-4.07433 l 0,-3.24291 c 0,-1.91114 0.91418,-4.0781 3.64169,-4.0781 1.11358,0 2.31368,0.23701 4.23986,0.7637 l 0.56431,-2.19705 c -1.58759,-0.50412 -3.28429,-0.90666 -4.80417,-0.90666"
           style="fill:#635c6d;fill-opacity:1;fill-rule:nonzero;stroke:none"
           id="path816" /><path
           d="m 569.23433,284.59507 c 0,2.27982 -1.08724,4.13076 -3.74703,4.13076 -2.61841,0 -3.63793,-1.85094 -3.63793,-4.13076 l 0,-3.13005 c 0,-2.28358 1.01952,-4.13829 3.69812,-4.13829 2.5996,0 3.68684,1.85471 3.68684,4.13829 l 0,3.13005 z m -3.68684,-9.60835 c -3.84484,0 -6.21871,2.75761 -6.21871,6.23753 l 0,3.60407 c 0,3.48745 2.34377,6.24505 6.15852,6.24505 3.85613,0 6.23,-2.7576 6.23,-6.24505 l 0,-3.60407 c 0,-3.47992 -2.33625,-6.23753 -6.16981,-6.23753"
           style="fill:#635c6d;fill-opacity:1;fill-rule:nonzero;stroke:none"
           id="path820" /><path
           d="m 578.55864,274.95847 c -1.6967,0.17306 -2.90056,1.2302 -2.90056,2.90056 l 0,19.24303 2.52059,0 0,-19.13017 c 0,-0.28591 0.29344,-0.81637 0.91042,-0.93675 l -0.53045,-2.07667 z"
           style="fill:#635c6d;fill-opacity:1;fill-rule:nonzero;stroke:none"
           id="path824" /><path
           d="m 591.53484,284.79705 c 0,1.9939 -1.00071,3.92761 -3.49121,3.92761 -2.46416,0 -3.48368,-1.93371 -3.48368,-3.89375 l 0,-0.43264 6.97489,0 0,0.39878 z m 1.95628,-2.4303 -8.93117,0 0,-1.13991 c 0,-1.75313 0.94052,-3.89752 3.80722,-3.89752 1.42959,0 3.13381,0.5267 4.51449,0.90667 l 0.60946,-2.21963 c -1.13238,-0.3875 -3.30687,-1.02705 -5.12395,-1.02705 -4.1571,0 -6.33158,3.04729 -6.33158,6.23753 l 0,3.60407 c 0,3.25043 2.26101,6.24129 6.00804,6.24129 3.77337,0 6.00428,-3.115 6.00428,-6.24129 l 0,-1.91114 c 0,-0.28968 -0.22949,-0.55302 -0.55679,-0.55302"
           style="fill:#635c6d;fill-opacity:1;fill-rule:nonzero;stroke:none"
           id="path828" /><path
           d="m 630.57392,282.25088 -3.07738,0 c -2.08795,0 -3.08114,-0.9029 -3.08114,-2.37763 0,-1.43336 0.79003,-2.80651 2.58831,-2.80651 1.15872,0 2.74631,0.52669 3.57021,0.94052 l 0,4.24362 z m 0.42888,-7.02756 -0.14296,1.05714 c -0.9029,-0.55679 -2.52059,-1.29415 -3.95395,-1.29415 -2.84413,0 -5.01108,1.78698 -5.01108,4.83051 0,3.16014 2.52059,4.42044 5.39482,4.42044 l 3.28429,0 0,0.88785 c 0,2.46416 -0.8239,3.60031 -2.93442,3.60031 -1.41078,0 -3.13757,-0.41007 -4.16086,-0.70351 l -0.62074,2.24596 c 1.58759,0.45145 3.14509,0.80508 4.7816,0.80508 3.57397,0 5.44749,-2.23467 5.44749,-5.54154 l 0,-10.30809 -2.08419,0 z"
           style="fill:#635c6d;fill-opacity:1;fill-rule:nonzero;stroke:none"
           id="path832" /><path
           d="m 641.72055,274.98781 c -3.13757,0 -4.48064,2.26101 -4.48064,4.42044 l 0,9.48796 -2.17824,0 0,1.93747 2.26101,0 0.37621,4.71013 2.05409,0 0,-4.71013 3.48745,0 0,-1.93747 -3.48745,0 0,-9.19452 c 0,-1.48978 0.4966,-2.37387 1.96757,-2.37387 0.57184,0 1.11358,0.064 1.90361,0.23701 l 0.26335,-2.21962 c -0.70351,-0.20692 -1.50107,-0.3574 -2.16696,-0.3574"
           style="fill:#635c6d;fill-opacity:1;fill-rule:nonzero;stroke:none"
           id="path836" /><path
           d="m 649.17097,293.85313 c -0.933,0 -1.68917,0.76746 -1.68917,1.6666 0,0.93676 0.75617,1.72303 1.6666,1.72303 0.96309,0 1.72679,-0.78627 1.72679,-1.68541 0,-0.93676 -0.7637,-1.70422 -1.70422,-1.70422 m 0.8239,-18.63734 -2.08043,0 0,13.66011 -1.87352,0.18058 0,1.7757 4.39035,0 0,-15.14236 c 0,-0.23325 -0.20692,-0.47403 -0.4364,-0.47403"
           style="fill:#635c6d;fill-opacity:1;fill-rule:nonzero;stroke:none"
           id="path840" /><path
           d="m 664.24863,284.59507 c 0,2.27982 -1.08724,4.13076 -3.74703,4.13076 -2.5996,0 -3.63417,-1.85094 -3.63417,-4.13076 l 0,-3.13005 c 0,-2.28358 1.03457,-4.13829 3.69436,-4.13829 2.5996,0 3.68684,1.85471 3.68684,4.13829 l 0,3.13005 z m -3.68684,-9.60835 c -3.83732,0 -6.21119,2.75761 -6.21119,6.23753 l 0,3.60407 c 0,3.48745 2.34378,6.24505 6.151,6.24505 3.87118,0 6.24129,-2.7576 6.24129,-6.24505 l 0,-3.60407 c 0,-3.47992 -2.34001,-6.23753 -6.1811,-6.23753"
           style="fill:#635c6d;fill-opacity:1;fill-rule:nonzero;stroke:none"
           id="path844" /><path
           d="m 681.93491,275.22294 -2.08419,0 0,9.90179 c 0,1.96004 -0.55303,3.60031 -2.81027,3.60031 -1.37692,0 -3.04729,-0.57936 -3.83732,-0.95933 l 0,-12.54277 -2.52436,0 0,15.60886 2.11429,0 0.17306,-1.01952 c 1.23019,0.57936 2.69741,1.2603 4.07433,1.2603 3.48368,0 5.3271,-2.5206 5.3271,-5.66193 l 0,-9.72121 c 0,-0.23325 -0.19939,-0.4665 -0.43264,-0.4665"
           style="fill:#635c6d;fill-opacity:1;fill-rule:nonzero;stroke:none"
           id="path848" /><path
           d="m 694.36369,282.25088 -3.08114,0 c -2.07291,0 -3.0661,-0.9029 -3.0661,-2.37763 0,-1.43336 0.79004,-2.80651 2.57327,-2.80651 1.17753,0 2.7576,0.52669 3.57397,0.94052 l 0,4.24362 z m 0.44393,-7.02756 -0.15801,1.05714 c -0.89914,-0.55679 -2.51307,-1.29415 -3.94266,-1.29415 -2.84789,0 -5.01109,1.78698 -5.01109,4.83051 0,3.16014 2.52059,4.42044 5.3873,4.42044 l 3.28053,0 0,0.88785 c 0,2.46416 -0.81637,3.60031 -2.93066,3.60031 -1.39949,0 -3.13381,-0.41007 -4.1571,-0.70351 l -0.60945,2.24596 c 1.58007,0.45145 3.13757,0.80508 4.76655,0.80508 3.5815,0 5.45878,-2.23467 5.45878,-5.54154 l 0,-10.30809 -2.08419,0 z"
           style="fill:#635c6d;fill-opacity:1;fill-rule:nonzero;stroke:none"
           id="path852" /><path
           d="m 703.46419,274.95847 c -1.70422,0.17306 -2.8968,1.2302 -2.8968,2.90056 l 0,19.24303 2.51307,0 0,-19.13017 c 0,-0.28591 0.2972,-0.81637 0.91042,-0.93675 l -0.52669,-2.07667 z"
           style="fill:#635c6d;fill-opacity:1;fill-rule:nonzero;stroke:none"
           id="path856" /><path
           d="m 716.43279,284.79705 c 0,1.9939 -1.00071,3.92761 -3.49121,3.92761 -2.45287,0 -3.48368,-1.93371 -3.48368,-3.89375 l 0,-0.43264 6.97489,0 0,0.39878 z m 1.96004,-2.4303 -8.93493,0 0,-1.13991 c 0,-1.75313 0.94052,-3.89752 3.80722,-3.89752 1.44088,0 3.13757,0.5267 4.51826,0.90667 l 0.60945,-2.21963 c -1.14367,-0.3875 -3.31063,-1.02705 -5.12771,-1.02705 -4.14957,0 -6.32405,3.04729 -6.32405,6.23753 l 0,3.60407 c 0,3.25043 2.25348,6.24129 6.00051,6.24129 3.78465,0 6.0118,-3.115 6.0118,-6.24129 l 0,-1.91114 c 0,-0.28968 -0.23701,-0.55302 -0.56055,-0.55302"
           style="fill:#635c6d;fill-opacity:1;fill-rule:nonzero;stroke:none"
           id="path860" /><path
           d="m 539.08616,252.70201 c -0.78627,0.37997 -2.37387,0.90666 -3.74703,0.90666 -2.31368,0 -3.28429,-1.55374 -3.28429,-3.83356 l 0,-3.82227 c 0,-2.24596 1.08724,-3.74327 3.28429,-3.74327 1.25653,0 2.93066,0.62451 3.74703,1.02329 l 0,9.46915 z m 0.47778,-12.60296 -0.18434,1.02328 c -1.22644,-0.58312 -2.66731,-1.24901 -4.04047,-1.24901 -3.60031,0 -5.80489,2.57326 -5.80489,5.70708 l 0,4.63111 c 0,3.16391 2.20458,5.73717 5.80489,5.73717 1.28663,0 2.72751,-0.54174 3.89375,-1.07971 -0.14672,1.6365 -0.14672,3.39715 -0.14672,3.39715 l 0,3.74327 2.52435,0 0,-21.91034 -2.04657,0 z"
           style="fill:#635c6d;fill-opacity:1;fill-rule:nonzero;stroke:none"
           id="path864" /><path
           d="m 555.00882,249.68181 c 0,1.98638 -0.99319,3.92761 -3.49121,3.92761 -2.45287,0 -3.48368,-1.94123 -3.48368,-3.90128 l 0,-0.43263 6.97489,0 0,0.4063 z m 1.96004,-2.4303 -8.93493,0 0,-1.13991 c 0,-1.76066 0.93675,-3.90128 3.80722,-3.90128 1.44088,0 3.13757,0.53798 4.51073,0.91043 l 0.61698,-2.22716 c -1.13614,-0.37244 -3.3031,-1.01952 -5.12771,-1.01952 -4.1571,0 -6.32405,3.04352 -6.32405,6.23753 l 0,3.59654 c 0,3.25796 2.24972,6.24882 6.00051,6.24882 3.78465,0 6.00428,-3.115 6.00428,-6.24882 l 0,-1.89985 c 0,-0.28591 -0.22949,-0.55678 -0.55303,-0.55678"
           style="fill:#635c6d;fill-opacity:1;fill-rule:nonzero;stroke:none"
           id="path868" /><path
           d="m 570.33624,239.84323 c -1.70046,0.17306 -2.90056,1.22268 -2.90056,2.90432 l 0,19.23927 2.52435,0 0,-19.13017 c 0,-0.29344 0.28216,-0.82389 0.89914,-0.93675 l -0.52293,-2.07667 z"
           style="fill:#635c6d;fill-opacity:1;fill-rule:nonzero;stroke:none"
           id="path872" /><path
           d="m 582.18829,247.13605 -3.06233,0 c -2.08796,0 -3.09243,-0.91042 -3.09243,-2.37011 0,-1.43711 0.79756,-2.8178 2.58831,-2.8178 1.16248,0 2.75008,0.53046 3.56645,0.93676 l 0,4.25115 z m 0.44016,-7.03509 -0.13919,1.06091 c -0.92171,-0.55679 -2.5206,-1.29039 -3.95395,-1.29039 -2.84789,0 -5.01861,1.78322 -5.01861,4.83051 0,3.16767 2.51683,4.42796 5.39482,4.42796 l 3.27677,0 0,0.87657 c 0,2.4604 -0.81637,3.60407 -2.9269,3.60407 -1.39949,0 -3.13381,-0.41759 -4.14957,-0.70351 l -0.61698,2.25348 c 1.58007,0.44393 3.13005,0.79004 4.76655,0.79004 3.57774,0 5.44749,-2.22715 5.44749,-5.53402 l 0,-10.31562 -2.08043,0 z"
           style="fill:#635c6d;fill-opacity:1;fill-rule:nonzero;stroke:none"
           id="path876" /><path
           d="m 614.37551,239.87257 c -3.12629,0 -4.48064,2.25725 -4.48064,4.41292 l 0,9.49548 -2.16695,0 0,1.93747 2.25724,0 0.37621,4.71013 2.0541,0 0,-4.71013 3.48368,0 0,-1.93747 -3.48368,0 0,-9.19452 c 0,-1.48978 0.50035,-2.37387 1.96004,-2.37387 0.59441,0 1.1211,0.0564 1.90737,0.23701 l 0.26335,-2.22715 c -0.69599,-0.20691 -1.48978,-0.34987 -2.17072,-0.34987"
           style="fill:#635c6d;fill-opacity:1;fill-rule:nonzero;stroke:none"
           id="path880" /><path
           d="m 627.81813,247.13605 -3.08114,0 c -2.07667,0 -3.06986,-0.91042 -3.06986,-2.37011 0,-1.43711 0.79004,-2.8178 2.58079,-2.8178 1.16248,0 2.75384,0.53046 3.57021,0.93676 l 0,4.25115 z m 0.44393,-7.03509 -0.15425,1.06091 c -0.90666,-0.55679 -2.51683,-1.29039 -3.95018,-1.29039 -2.8479,0 -5.01109,1.78322 -5.01109,4.83051 0,3.16767 2.52059,4.42796 5.39482,4.42796 l 3.27677,0 0,0.87657 c 0,2.4604 -0.81637,3.60407 -2.93066,3.60407 -1.40702,0 -3.13757,-0.41759 -4.15333,-0.70351 l -0.62451,2.25348 c 1.58384,0.44393 3.13381,0.79004 4.77784,0.79004 3.57774,0 5.44373,-2.22715 5.44373,-5.53402 l 0,-10.31562 -2.06914,0 z"
           style="fill:#635c6d;fill-opacity:1;fill-rule:nonzero;stroke:none"
           id="path884" /><path
           d="m 638.96483,239.87257 c -3.13757,0 -4.47687,2.25725 -4.47687,4.41292 l 0,9.49548 -2.18201,0 0,1.93747 2.26101,0 0.37997,4.71013 2.05033,0 0,-4.71013 3.49121,0 0,-1.93747 -3.49121,0 0,-9.19452 c 0,-1.48978 0.50412,-2.37387 1.96757,-2.37387 0.58688,0 1.11734,0.0564 1.90361,0.23701 l 0.26335,-2.22715 c -0.70351,-0.20691 -1.48979,-0.34987 -2.16696,-0.34987"
           style="fill:#635c6d;fill-opacity:1;fill-rule:nonzero;stroke:none"
           id="path888" /><path
           d="m 646.42315,258.73078 c -0.933,0 -1.6967,0.76746 -1.6967,1.6666 0,0.94428 0.7637,1.72303 1.67037,1.72303 0.96685,0 1.72303,-0.77875 1.72303,-1.68541 0,-0.93676 -0.75618,-1.70422 -1.6967,-1.70422 m 0.8239,-18.62981 -2.08796,0 0,13.65258 -1.87351,0.18058 0,1.78323 4.40163,0 0,-15.13485 c 0,-0.24077 -0.20692,-0.48154 -0.44016,-0.48154"
           style="fill:#635c6d;fill-opacity:1;fill-rule:nonzero;stroke:none"
           id="path892" /><path
           d="m 655.96043,239.87257 c -1.54998,0 -3.15262,0.43264 -4.50321,0.87656 l 0.43264,2.27606 c 1.31673,-0.36868 2.66731,-0.81261 4.07057,-0.81261 1.96004,0 2.58455,1.00448 2.58455,2.13686 0,3.17144 -6.80184,2.02024 -6.80184,7.26458 0,2.72374 2.11429,4.33391 4.89446,4.33391 1.31673,0 2.25349,-0.17682 3.80347,-0.76746 l -0.57936,-2.15944 c -1.14744,0.38374 -2.0541,0.58689 -3.22411,0.58689 -1.75689,0 -2.4303,-0.91042 -2.4303,-1.9939 0,-3.03976 6.82065,-1.6967 6.82065,-7.26458 0,-2.72374 -1.99014,-4.47687 -5.06752,-4.47687"
           style="fill:#635c6d;fill-opacity:1;fill-rule:nonzero;stroke:none"
           id="path896" /><path
           d="m 669.54639,239.87257 c -3.13757,0 -4.48064,2.25725 -4.48064,4.41292 l 0,9.49548 -2.17071,0 0,1.93747 2.25348,0 0.38749,4.71013 2.0541,0 0,-4.71013 3.47992,0 0,-1.93747 -3.47992,0 0,-9.19452 c 0,-1.48978 0.48531,-2.37387 1.95628,-2.37387 0.57936,0 1.10229,0.0564 1.89985,0.23701 l 0.26711,-2.22715 c -0.69975,-0.20691 -1.48979,-0.34987 -2.16696,-0.34987"
           style="fill:#635c6d;fill-opacity:1;fill-rule:nonzero;stroke:none"
           id="path900" /><path
           d="m 677.00471,258.73078 c -0.93676,0 -1.70046,0.76746 -1.70046,1.6666 0,0.94428 0.7637,1.72303 1.67036,1.72303 0.97814,0 1.7268,-0.77875 1.7268,-1.68541 0,-0.93676 -0.74866,-1.70422 -1.6967,-1.70422 m 0.81637,-18.62981 -2.08043,0 0,13.65258 -1.86975,0.18058 0,1.78323 4.39411,0 0,-15.13485 c 0,-0.24077 -0.20316,-0.48154 -0.44393,-0.48154"
           style="fill:#635c6d;fill-opacity:1;fill-rule:nonzero;stroke:none"
           id="path904" /><path
           d="m 691.72948,252.6136 c -0.8239,0.4063 -2.48673,0.99695 -3.74703,0.99695 -2.19329,0 -3.27677,-1.50483 -3.27677,-3.74703 l 0,-3.84484 c 0,-2.25725 0.96309,-3.81099 3.27677,-3.81099 1.38068,0 2.95323,0.54174 3.74703,0.91419 l 0,9.49172 z m 0,-18.2536 0,3.31439 c 0,0 0,1.78322 0.1392,3.25043 -1.13239,-0.56055 -2.59208,-1.05338 -3.88623,-1.05338 -3.60407,0 -5.79736,2.5394 -5.79736,5.68074 l 0,4.68379 c 0,3.13757 2.19329,5.72212 5.79736,5.72212 1.38068,0 2.81403,-0.68094 4.04047,-1.29792 l 0.17682,1.05714 2.05409,0 0,-21.1203 -2.52435,-0.23701 z"
           style="fill:#635c6d;fill-opacity:1;fill-rule:nonzero;stroke:none"
           id="path908" /><path
           d="m 707.71117,240.10018 -0.18058,1.01952 c -1.22268,-0.58312 -2.68612,-1.24901 -4.07057,-1.24901 -3.47992,0 -5.30077,2.5206 -5.30077,5.65441 l 0,9.60835 c 0,0.29344 0.21444,0.57559 0.53046,0.57559 l 1.9939,0 0,-9.89802 c 0,-1.95252 0.55302,-3.60031 2.77641,-3.60031 1.38445,0 3.04728,0.5944 3.84108,0.97437 l 0,12.52396 2.51307,0 0,-15.60886 -2.103,0 z"
           style="fill:#635c6d;fill-opacity:1;fill-rule:nonzero;stroke:none"
           id="path912" /><path
           d="m 723.07549,249.68181 c 0,1.98638 -1.00071,3.92761 -3.49121,3.92761 -2.45287,0 -3.48368,-1.94123 -3.48368,-3.90128 l 0,-0.43263 6.97489,0 0,0.4063 z m 1.9638,-2.4303 -8.93869,0 0,-1.13991 c 0,-1.76066 0.94052,-3.90128 3.80722,-3.90128 1.44088,0 3.13757,0.53798 4.51826,0.91043 l 0.61321,-2.22716 c -1.14743,-0.37244 -3.31815,-1.01952 -5.13147,-1.01952 -4.16086,0 -6.32405,3.04352 -6.32405,6.23753 l 0,3.59654 c 0,3.25796 2.25348,6.24882 6.00051,6.24882 3.77713,0 6.0118,-3.115 6.0118,-6.24882 l 0,-1.89985 c 0,-0.28591 -0.24453,-0.55678 -0.55679,-0.55678"
           style="fill:#635c6d;fill-opacity:1;fill-rule:nonzero;stroke:none"
           id="path916" /><path
           d="m 539.02371,214.56657 c 0,1.9939 -0.99695,3.92761 -3.48368,3.92761 -2.45664,0 -3.48745,-1.93371 -3.48745,-3.90128 l 0,-0.43263 6.97113,0 0,0.4063 z m 1.97133,-2.43406 -8.94246,0 0,-1.14368 c 0,-1.76441 0.94052,-3.89375 3.80722,-3.89375 1.43712,0 3.13758,0.53046 4.51826,0.91043 l 0.61698,-2.23468 c -1.13991,-0.37245 -3.31063,-1.012 -5.13524,-1.012 -4.14957,0 -6.32405,3.036 -6.32405,6.23 l 0,3.60407 c 0,3.24668 2.26101,6.23753 6.00428,6.23753 3.78088,0 6.00051,-3.11124 6.00051,-6.23753 l 0,-1.90361 c 0,-0.28215 -0.22949,-0.55678 -0.5455,-0.55678"
           style="fill:#635c6d;fill-opacity:1;fill-rule:nonzero;stroke:none"
           id="path920" /><path
           d="m 550.26593,204.75733 c -3.13757,0 -4.4844,2.25348 -4.4844,4.42044 l 0,9.4842 -2.17072,0 0,1.93747 2.25725,0 0.38373,4.71389 2.05034,0 0,-4.71389 3.47992,0 0,-1.93747 -3.47992,0 0,-9.19076 c 0,-1.50107 0.49659,-2.37387 1.9638,-2.37387 0.58312,0 1.10981,0.0489 1.90737,0.22949 l 0.25583,-2.21963 c -0.69599,-0.20691 -1.48979,-0.34987 -2.1632,-0.34987"
           style="fill:#635c6d;fill-opacity:1;fill-rule:nonzero;stroke:none"
           id="path924" /><path
           d="m 571.01229,217.58677 c -0.77875,0.37245 -2.36635,0.90666 -3.74703,0.90666 -2.31368,0 -3.27677,-1.55374 -3.27677,-3.84108 l 0,-3.80722 c 0,-2.26101 1.07972,-3.7508 3.27677,-3.7508 1.25653,0 2.92313,0.62451 3.74703,1.02329 l 0,9.46915 z m 0.47026,-12.60296 -0.16929,1.03457 c -1.23773,-0.59817 -2.66732,-1.2603 -4.048,-1.2603 -3.59278,0 -5.79736,2.56574 -5.79736,5.70708 l 0,4.62359 c 0,3.16391 2.20458,5.74093 5.79736,5.74093 1.28663,0 2.72751,-0.55679 3.89375,-1.07595 -0.14672,1.62898 -0.14672,3.39339 -0.14672,3.39339 l 0,3.74703 2.52059,0 0,-21.91034 -2.05033,0 z"
           style="fill:#635c6d;fill-opacity:1;fill-rule:nonzero;stroke:none"
           id="path928" /><path
           d="m 586.93528,214.56657 c 0,1.9939 -0.99319,3.92761 -3.49121,3.92761 -2.44535,0 -3.48368,-1.93371 -3.48368,-3.90128 l 0,-0.43263 6.97489,0 0,0.4063 z m 1.96757,-2.43406 -8.94246,0 0,-1.14368 c 0,-1.76441 0.93675,-3.89375 3.81474,-3.89375 1.43336,0 3.13382,0.53046 4.50697,0.91043 l 0.62075,-2.23468 c -1.1512,-0.37245 -3.32192,-1.012 -5.12772,-1.012 -4.15709,0 -6.33157,3.036 -6.33157,6.23 l 0,3.60407 c 0,3.24668 2.25348,6.23753 6.00051,6.23753 3.78089,0 6.00804,-3.11124 6.00804,-6.23753 l 0,-1.90361 c 0,-0.28215 -0.23325,-0.55678 -0.54926,-0.55678"
           style="fill:#635c6d;fill-opacity:1;fill-rule:nonzero;stroke:none"
           id="path932" /><path
           d="m 602.26993,204.72046 c -1.70422,0.18058 -2.90056,1.2302 -2.90056,2.90432 l 0,19.24304 2.5093,0 0,-19.12641 c 0,-0.28592 0.30097,-0.81637 0.92171,-0.92923 l -0.53045,-2.09172 z"
           style="fill:#635c6d;fill-opacity:1;fill-rule:nonzero;stroke:none"
           id="path936" /><path
           id="path938"
           style="fill:#635c6d;fill-opacity:1;fill-rule:nonzero;stroke:none"
           d="m 606.97174,225.26141 2.25724,0 0,-6.88836 -2.25724,0 0,6.88836 z" /><path
           d="m 640.03777,204.98535 -2.08043,0 0,9.89427 c 0,1.96756 -0.55679,3.61535 -2.82156,3.61535 -1.36563,0 -3.03976,-0.58688 -3.82603,-0.97437 l 0,-12.53525 -2.52059,0 0,15.61263 2.11428,0 0.16177,-1.02329 c 1.23396,0.58688 2.70494,1.25653 4.07057,1.25653 3.49873,0 5.34592,-2.51306 5.34592,-5.65064 l 0,-9.72121 c 0,-0.24453 -0.21068,-0.47402 -0.44393,-0.47402"
           style="fill:#635c6d;fill-opacity:1;fill-rule:nonzero;stroke:none"
           id="path942" /><path
           d="m 652.47031,212.01701 -3.07738,0 c -2.07291,0 -3.07362,-0.90666 -3.07362,-2.37387 0,-1.42959 0.78251,-2.81027 2.58079,-2.81027 1.16624,0 2.74631,0.52292 3.57021,0.93675 l 0,4.24739 z m 0.4364,-7.03132 -0.14296,1.05714 c -0.90666,-0.55303 -2.51307,-1.28663 -3.95394,-1.28663 -2.84037,0 -5.01109,1.78322 -5.01109,4.83051 0,3.16014 2.52059,4.42044 5.39106,4.42044 l 3.28053,0 0,0.8728 c 0,2.46793 -0.8239,3.61536 -2.93442,3.61536 -1.39949,0 -3.12629,-0.41759 -4.14957,-0.70351 l -0.61698,2.24596 c 1.58007,0.44393 3.12252,0.7938 4.76655,0.7938 3.57397,0 5.45501,-2.22339 5.45501,-5.53402 l 0,-10.31185 -2.08419,0 z"
           style="fill:#635c6d;fill-opacity:1;fill-rule:nonzero;stroke:none"
           id="path946" /><path
           d="m 661.5704,204.72046 c -1.70422,0.18058 -2.90056,1.2302 -2.90056,2.90432 l 0,19.24304 2.51307,0 0,-19.12641 c 0,-0.28592 0.2972,-0.81637 0.91042,-0.92923 l -0.52293,-2.09172 z"
           style="fill:#635c6d;fill-opacity:1;fill-rule:nonzero;stroke:none"
           id="path950" /><path
           d="m 675.3588,204.5222 c -0.11662,-3.0849 -1.76065,-5.04871 -5.07128,-5.04871 l -2.77642,0 -0.21443,2.17072 2.99085,0 c 2.52435,0 2.49049,2.14062 2.58078,4.01414 -0.52292,-0.25959 -1.54997,-0.67341 -2.60335,-0.67341 -3.05105,0 -4.77408,1.9939 -5.08257,5.33086 l -0.86904,10.28176 2.55069,0 0.81637,-9.95822 c 0.17682,-2.17072 0.85399,-3.31439 2.73503,-3.31439 0.8728,0 2.15191,0.47026 2.5695,0.64331 l 0.53045,12.6293 2.51307,0 -0.66965,-16.07536 z"
           style="fill:#635c6d;fill-opacity:1;fill-rule:nonzero;stroke:none"
           id="path954" /><path
           d="m 684.05108,204.75733 c -1.56502,0 -3.18272,0.43264 -4.51073,0.86904 l 0.42511,2.28734 c 1.33178,-0.3762 2.67484,-0.81637 4.08562,-0.81637 1.95628,0 2.56574,0.99319 2.56574,2.13686 0,3.17144 -6.79808,2.02776 -6.79808,7.26081 0,2.72751 2.11805,4.33768 4.90199,4.33768 1.32049,0 2.25348,-0.17682 3.79594,-0.75994 l -0.57936,-2.16696 c -1.14367,0.37997 -2.05034,0.57936 -3.21658,0.57936 -1.76441,0 -2.44159,-0.89913 -2.44159,-1.99014 0,-3.04352 6.8357,-1.69293 6.8357,-7.26081 0,-2.72374 -1.9939,-4.47687 -5.06376,-4.47687"
           style="fill:#635c6d;fill-opacity:1;fill-rule:nonzero;stroke:none"
           id="path958" /><path
           d="m 701.72269,214.56657 c 0,1.9939 -0.99319,3.92761 -3.48745,3.92761 -2.45663,0 -3.47992,-1.93371 -3.47992,-3.90128 l 0,-0.43263 6.96737,0 0,0.4063 z m 1.96757,-2.43406 -8.93494,0 0,-1.14368 c 0,-1.76441 0.933,-3.89375 3.80722,-3.89375 1.42583,0 3.13005,0.53046 4.51074,0.91043 l 0.61698,-2.23468 c -1.14367,-0.37245 -3.31816,-1.012 -5.12772,-1.012 -4.16462,0 -6.32781,3.036 -6.32781,6.23 l 0,3.60407 c 0,3.24668 2.24972,6.23753 6.00051,6.23753 3.78842,0 6.00428,-3.11124 6.00428,-6.23753 l 0,-1.90361 c 0,-0.28215 -0.23325,-0.55678 -0.54926,-0.55678"
           style="fill:#635c6d;fill-opacity:1;fill-rule:nonzero;stroke:none"
           id="path962" /><path
           d="m 539.08616,182.46062 c -0.78627,0.37997 -2.37387,0.91042 -3.74703,0.91042 -2.31368,0 -3.28429,-1.56126 -3.28429,-3.84108 l 0,-3.80722 c 0,-2.26477 1.08724,-3.75079 3.28429,-3.75079 1.25653,0 2.93066,0.61698 3.74703,1.02328 l 0,9.46539 z m 0.47778,-12.5992 -0.18434,1.03457 c -1.22644,-0.58688 -2.66731,-1.2603 -4.04047,-1.2603 -3.60031,0 -5.80489,2.57327 -5.80489,5.70708 l 0,4.61983 c 0,3.17143 2.20458,5.74469 5.80489,5.74469 1.28663,0 2.72751,-0.55302 3.89375,-1.07971 -0.14672,1.64026 -0.14672,3.39715 -0.14672,3.39715 l 0,3.75456 2.52435,0 0,-21.91787 -2.04657,0 z"
           style="fill:#635c6d;fill-opacity:1;fill-rule:nonzero;stroke:none"
           id="path966" /><path
           d="m 555.00882,179.44046 c 0,1.99766 -0.99319,3.93137 -3.49121,3.93137 -2.45287,0 -3.48368,-1.93371 -3.48368,-3.89375 l 0,-0.44392 6.97489,0 0,0.4063 z m 1.96004,-2.42654 -8.93493,0 0,-1.14743 c 0,-1.75313 0.93675,-3.89376 3.80722,-3.89376 1.44088,0 3.13757,0.5267 4.51073,0.90667 l 0.61698,-2.22339 c -1.13614,-0.3875 -3.3031,-1.01953 -5.12771,-1.01953 -4.1571,0 -6.32405,3.036 -6.32405,6.23001 l 0,3.61159 c 0,3.23915 2.24972,6.23 6.00051,6.23 3.78465,0 6.00428,-3.09619 6.00428,-6.23 l 0,-1.91114 c 0,-0.28968 -0.22949,-0.55302 -0.55303,-0.55302"
           style="fill:#635c6d;fill-opacity:1;fill-rule:nonzero;stroke:none"
           id="path970" /><path
           d="m 570.33624,169.59805 c -1.70046,0.17682 -2.90056,1.2302 -2.90056,2.90056 l 0,19.24303 2.52435,0 0,-19.12264 c 0,-0.29344 0.28216,-0.81637 0.89914,-0.94052 l -0.52293,-2.08043 z"
           style="fill:#635c6d;fill-opacity:1;fill-rule:nonzero;stroke:none"
           id="path974" /><path
           id="path976"
           style="fill:#635c6d;fill-opacity:1;fill-rule:nonzero;stroke:none"
           d="m 575.04674,190.13865 2.25725,0 0,-6.88084 -2.25725,0 0,6.88084 z" /><path
           d="m 600.69019,169.86258 -2.08043,0 0,9.89427 c 0,1.97509 -0.55679,3.61535 -2.80275,3.61535 -1.38444,0 -3.05104,-0.58688 -3.84484,-0.97437 l 0,-12.53525 -2.52059,0 0,15.61639 2.11428,0 0.17682,-1.03081 c 1.22644,0.58688 2.68989,1.26029 4.07433,1.26029 3.47992,0 5.32334,-2.51683 5.32334,-5.64311 l 0,-9.72874 c 0,-0.24077 -0.20691,-0.47402 -0.44016,-0.47402"
           style="fill:#635c6d;fill-opacity:1;fill-rule:nonzero;stroke:none"
           id="path980" /><path
           d="m 613.10054,189.40429 c -1.00071,0.20691 -1.61769,0.25958 -2.02024,0.25958 -1.47473,0 -2.22715,-0.61322 -2.22715,-2.68988 l 0,-1.50107 3.94642,0 0,-1.92995 -3.92384,0 0,-13.20866 c 0,-0.23701 -0.20692,-0.47026 -0.43264,-0.47026 l -2.08043,0 0,13.64883 -2.49802,0.18057 0,1.77947 2.46792,0 0,1.67412 c 0,2.957 1.70046,4.86437 4.71012,4.86437 0.8239,0 1.61017,-0.15048 2.43407,-0.3574 l -0.37621,-2.24972 z"
           style="fill:#635c6d;fill-opacity:1;fill-rule:nonzero;stroke:none"
           id="path984" /><path
           d="m 625.97399,179.24216 c 0,2.2723 -1.08348,4.13076 -3.74703,4.13076 -2.60712,0 -3.63793,-1.85846 -3.63793,-4.13076 l 0,-3.14886 c 0,-2.27229 1.03081,-4.11948 3.6906,-4.11948 2.61088,0 3.69436,1.84719 3.69436,4.11948 l 0,3.14886 z m -3.69436,-9.61211 c -3.8298,0 -6.19614,2.7576 -6.19614,6.23753 l 0,3.60783 c 0,3.47992 2.33248,6.23376 6.14347,6.23376 3.86365,0 6.23753,-2.75384 6.23753,-6.23376 l 0,-3.60783 c 0,-3.47993 -2.34378,-6.23753 -6.18486,-6.23753"
           style="fill:#635c6d;fill-opacity:1;fill-rule:nonzero;stroke:none"
           id="path988" /><path
           d="m 639.3764,183.25028 c -0.38373,0.064 -0.85399,0.12039 -1.32049,0.12039 -1.2603,0 -2.52059,-1.14368 -3.13381,-1.70423 l 0,-11.33514 c 0,-0.23325 -0.20315,-0.47026 -0.4364,-0.47026 l -2.07667,0 0,15.61263 2.07667,0 0.15048,-1.6666 c 0.46274,0.47026 2.103,1.89985 3.47616,1.89985 0.65084,0 1.17377,-0.0903 1.5876,-0.1693 l -0.32354,-2.28734 z"
           style="fill:#635c6d;fill-opacity:1;fill-rule:nonzero;stroke:none"
           id="path992" /><path
           d="m 662.27579,169.86258 -2.08419,0 0,9.46539 c 0,2.22339 -0.7938,4.04423 -3.13381,4.04423 -2.28735,0 -3.16391,-2.20457 -3.16391,-4.4242 l 0,-9.08542 -2.49426,0 0,9.08542 c 0,2.21963 -0.86904,4.4242 -3.18272,4.4242 -2.3212,0 -3.13757,-1.82084 -3.13757,-4.04423 l 0,-9.46539 -2.52059,0 0,9.64597 c 0,3.44606 1.99014,6.1999 5.51144,6.1999 2.09924,0 3.62665,-1.02328 4.58974,-2.66731 0.97061,1.64403 2.46416,2.66731 4.57845,2.66731 3.51378,0 5.47382,-2.75384 5.47382,-6.1999 l 0,-9.17195 c 0,-0.24077 -0.20315,-0.47402 -0.4364,-0.47402"
           style="fill:#635c6d;fill-opacity:1;fill-rule:nonzero;stroke:none"
           id="path996" /><path
           d="m 675.34412,176.88706 -3.07738,0 c -2.08043,0 -3.06609,-0.89914 -3.06609,-2.35882 0,-1.44088 0.77498,-2.81404 2.56573,-2.81404 1.17377,0 2.75384,0.52293 3.57774,0.933 l 0,4.23986 z m 0.42888,-7.0238 -0.13544,1.05714 c -0.91042,-0.54926 -2.51307,-1.29039 -3.9577,-1.29039 -2.84414,0 -5.01485,1.78699 -5.01485,4.83051 0,3.16391 2.53564,4.4242 5.39482,4.4242 l 3.28429,0 0,0.87281 c 0,2.46792 -0.8239,3.61535 -2.93066,3.61535 -1.39949,0 -3.13005,-0.41759 -4.15333,-0.71103 l -0.62075,2.26101 c 1.58384,0.42888 3.12629,0.78627 4.77408,0.78627 3.57774,0 5.44749,-2.22338 5.44749,-5.53025 l 0,-10.31562 -2.08795,0 z"
           style="fill:#635c6d;fill-opacity:1;fill-rule:nonzero;stroke:none"
           id="path1000" /><path
           d="m 686.49041,169.63117 c -3.13757,0 -4.48064,2.25725 -4.48064,4.4242 l 0,9.48797 -2.17824,0 0,1.92994 2.26101,0 0.39502,4.71765 2.04281,0 0,-4.71765 3.47992,0 0,-1.92994 -3.47992,0 0,-9.20205 c 0,-1.49731 0.49283,-2.36635 1.96004,-2.36635 0.58312,0 1.10981,0.0564 1.91114,0.23702 l 0.25582,-2.21963 c -0.69599,-0.2182 -1.48979,-0.36116 -2.16696,-0.36116"
           style="fill:#635c6d;fill-opacity:1;fill-rule:nonzero;stroke:none"
           id="path1004" /><path
           d="m 693.94869,188.50022 c -0.94428,0 -1.6967,0.75994 -1.6967,1.65908 0,0.93299 0.75242,1.73055 1.6666,1.73055 0.97062,0 1.73432,-0.79756 1.73432,-1.70046 0,-0.92923 -0.7637,-1.68917 -1.70422,-1.68917 m 0.8239,-18.63734 -2.0842,0 0,13.64882 -1.86975,0.18435 0,1.78322 4.39411,0 0,-15.14613 c 0,-0.22948 -0.21444,-0.47026 -0.44016,-0.47026"
           style="fill:#635c6d;fill-opacity:1;fill-rule:nonzero;stroke:none"
           id="path1008" /><path
           d="m 709.02263,179.24216 c 0,2.2723 -1.07972,4.13076 -3.74703,4.13076 -2.60336,0 -3.62664,-1.85846 -3.62664,-4.13076 l 0,-3.14886 c 0,-2.27229 1.02328,-4.11948 3.6906,-4.11948 2.60335,0 3.68307,1.84719 3.68307,4.11948 l 0,3.14886 z m -3.68307,-9.61211 c -3.84109,0 -6.2112,2.7576 -6.2112,6.23753 l 0,3.60783 c 0,3.47992 2.34002,6.23376 6.14724,6.23376 3.86742,0 6.23376,-2.75384 6.23376,-6.23376 l 0,-3.60783 c 0,-3.47993 -2.33625,-6.23753 -6.1698,-6.23753"
           style="fill:#635c6d;fill-opacity:1;fill-rule:nonzero;stroke:none"
           id="path1012" /><path
           d="m 726.70511,169.86258 -2.07291,0 0,9.89427 c 0,1.97509 -0.56431,3.61535 -2.81779,3.61535 -1.37692,0 -3.04352,-0.58688 -3.84485,-0.97437 l 0,-12.53525 -2.50554,0 0,15.61639 2.09924,0 0.17306,-1.03081 c 1.23772,0.58688 2.70117,1.26029 4.07809,1.26029 3.48744,0 5.3271,-2.51683 5.3271,-5.64311 l 0,-9.72874 c 0,-0.24077 -0.20315,-0.47402 -0.4364,-0.47402"
           style="fill:#635c6d;fill-opacity:1;fill-rule:nonzero;stroke:none"
           id="path1016" /><path
           d="m 617.66732,275.21918 -2.07667,0 0,9.89427 c 0,1.96756 -0.56431,3.61535 -2.82156,3.61535 -1.36939,0 -3.03976,-0.58688 -3.82979,-0.97437 l 0,-12.53525 -2.52436,0 0,15.61263 2.11429,0 0.1693,-1.02329 c 1.23396,0.58688 2.70117,1.25653 4.07056,1.25653 3.49121,0 5.33839,-2.51306 5.33839,-5.65064 l 0,-9.72121 c 0,-0.24453 -0.20691,-0.47402 -0.44016,-0.47402"
           style="fill:#635c6d;fill-opacity:1;fill-rule:nonzero;stroke:none"
           id="path1020" /><path
           d="m 600.86287,239.87257 c -1.54998,0 -3.15638,0.43264 -4.50697,0.87656 l 0.44016,2.27606 c 1.31673,-0.36868 2.66732,-0.81261 4.06681,-0.81261 1.96004,0 2.58455,1.00448 2.58455,2.13686 0,3.17144 -6.80184,2.02024 -6.80184,7.26458 0,2.72374 2.11053,4.33391 4.89446,4.33391 1.32049,0 2.24973,-0.17682 3.80347,-0.76746 l -0.58313,-2.15944 c -1.13991,0.38374 -2.05033,0.58689 -3.22034,0.58689 -1.75689,0 -2.4303,-0.91042 -2.4303,-1.9939 0,-3.03976 6.82065,-1.6967 6.82065,-7.26458 0,-2.72374 -1.98638,-4.47687 -5.06752,-4.47687"
           style="fill:#635c6d;fill-opacity:1;fill-rule:nonzero;stroke:none"
           id="path1024" /><path
           d="m 622.17501,212.01321 -3.08114,0 c -2.06915,0 -3.06986,-0.90666 -3.06986,-2.37387 0,-1.42959 0.78628,-2.81027 2.58079,-2.81027 1.16624,0 2.74631,0.52292 3.57021,0.93675 l 0,4.24739 z m 0.44016,-7.03132 -0.15048,1.05714 c -0.89914,-0.55303 -2.51307,-1.28663 -3.95394,-1.28663 -2.84037,0 -5.00733,1.78322 -5.00733,4.83051 0,3.16014 2.52059,4.42044 5.39482,4.42044 l 3.27677,0 0,0.8728 c 0,2.46793 -0.8239,3.61536 -2.93066,3.61536 -1.40325,0 -3.13005,-0.41759 -4.14957,-0.70351 l -0.62074,2.24596 c 1.58007,0.44393 3.12628,0.7938 4.77031,0.7938 3.57021,0 5.45125,-2.22339 5.45125,-5.53402 l 0,-10.31185 -2.08043,0 z"
           style="fill:#635c6d;fill-opacity:1;fill-rule:nonzero;stroke:none"
           id="path1028" /><path
           d="m 583.34927,188.4965 c -0.94052,0 -1.6967,0.75994 -1.6967,1.65908 0,0.93299 0.75618,1.73055 1.6666,1.73055 0.97062,0 1.73432,-0.79756 1.73432,-1.70046 0,-0.92923 -0.7637,-1.68917 -1.70422,-1.68917 m 0.8239,-18.63734 -2.08043,0 0,13.64882 -1.87352,0.18435 0,1.78322 4.39411,0 0,-15.14613 c 0,-0.22948 -0.21444,-0.47026 -0.44016,-0.47026"
           style="fill:#635c6d;fill-opacity:1;fill-rule:nonzero;stroke:none"
           id="path1032" /></g></g></g></svg>